<?xml version="1.0" ?>
<svg height="24px" viewBox="0 0 24 24" width="24px" xml:space="preserve" xmlns="http://www.w3.org/2000/svg"><path d="M22.9,1H18c0-0.6-0.4-1-1-1s-1,0.4-1,1H8c0-0.6-0.4-1-1-1S6,0.4,6,1H1.1C0.5,1,0,1.5,0,2.1v20.8C0,23.5,0.5,24,1.1,24h21.8  c0.6,0,1.1-0.5,1.1-1.1V2.1C24,1.5,23.5,1,22.9,1z M2,8h2v2H2V8z M19,10h-2V8h2V10z M11,14h2v2h-2V14z M10,16H8v-2h2V16z M14,14h2v2  h-2V14z M14,13v-2h2v2H14z M13,13h-2v-2h2V13z M10,13H8v-2h2V13z M7,13H5v-2h2V13z M7,14v2H5v-2H7z M7,17v2H5v-2H7z M8,17h2v2H8V17z   M11,17h2v2h-2V17z M14,17h2v2h-2V17z M17,17h2v2h-2V17z M17,16v-2h2v2H17z M17,13v-2h2v2H17z M16,10h-2V8h2V10z M13,10h-2V8h2V10z   M10,10H8V8h2V10z M7,10H5V8h2V10z M2,11h2v2H2V11z M2,14h2v2H2V14z M2,17h2v2H2V17z M2,22v-2h2v2H2z M5,22v-2h2v2H5z M8,22v-2h2v2  H8z M11,22v-2h2v2H11z M14,22v-2h2v2H14z M17,22v-2h2v2H17z M22,22h-2v-2h2V22z M22,19h-2v-2h2V19z M22,16h-2v-2h2V16z M22,13h-2v-2  h2V13z M22,10h-2V8h2V10z M22,7H2V3h4v1c0,0.6,0.4,1,1,1s1-0.4,1-1V3h8v1c0,0.6,0.4,1,1,1s1-0.4,1-1V3h4V7z" /></svg>